<mxfile host="app.diagrams.net" agent="Mozilla/5.0 (Windows NT 10.0; Win64; x64) AppleWebKit/537.36 (KHTML, like Gecko) Chrome/141.0.0.0 Safari/537.36" version="28.2.7">
  <diagram name="Página-1" id="ELE0oWPl0g7W8NhxojGZ">
    <mxGraphModel dx="1097" dy="656" grid="1" gridSize="10" guides="1" tooltips="1" connect="1" arrows="1" fold="1" page="1" pageScale="1" pageWidth="827" pageHeight="1169" math="0" shadow="0">
      <root>
        <mxCell id="0" />
        <mxCell id="1" parent="0" />
        <mxCell id="4pfl6su4iYsKpTgJtxGB-3" value="Servidor de aplicação" style="verticalAlign=top;align=left;spacingTop=8;spacingLeft=2;spacingRight=12;shape=cube;size=10;direction=south;fontStyle=4;html=1;whiteSpace=wrap;" vertex="1" parent="1">
          <mxGeometry x="210" y="320" width="370" height="240" as="geometry" />
        </mxCell>
        <mxCell id="4pfl6su4iYsKpTgJtxGB-4" value="Inscrição" style="shape=module;align=left;spacingLeft=20;align=center;verticalAlign=top;whiteSpace=wrap;html=1;" vertex="1" parent="1">
          <mxGeometry x="220" y="370" width="100" height="50" as="geometry" />
        </mxCell>
        <mxCell id="4pfl6su4iYsKpTgJtxGB-5" value="Competicao" style="shape=module;align=left;spacingLeft=20;align=center;verticalAlign=top;whiteSpace=wrap;html=1;" vertex="1" parent="1">
          <mxGeometry x="335" y="370" width="100" height="50" as="geometry" />
        </mxCell>
        <mxCell id="4pfl6su4iYsKpTgJtxGB-6" value="Alocacao" style="shape=module;align=left;spacingLeft=20;align=center;verticalAlign=top;whiteSpace=wrap;html=1;" vertex="1" parent="1">
          <mxGeometry x="450" y="370" width="100" height="50" as="geometry" />
        </mxCell>
        <mxCell id="4pfl6su4iYsKpTgJtxGB-7" value="Resultado" style="shape=module;align=left;spacingLeft=20;align=center;verticalAlign=top;whiteSpace=wrap;html=1;" vertex="1" parent="1">
          <mxGeometry x="220" y="440" width="100" height="50" as="geometry" />
        </mxCell>
        <mxCell id="4pfl6su4iYsKpTgJtxGB-8" value="Relatorios" style="shape=module;align=left;spacingLeft=20;align=center;verticalAlign=top;whiteSpace=wrap;html=1;" vertex="1" parent="1">
          <mxGeometry x="345" y="440" width="100" height="50" as="geometry" />
        </mxCell>
        <mxCell id="4pfl6su4iYsKpTgJtxGB-11" value="" style="group" vertex="1" connectable="0" parent="1">
          <mxGeometry x="210" y="590" width="180" height="120" as="geometry" />
        </mxCell>
        <mxCell id="4pfl6su4iYsKpTgJtxGB-9" value="Servidor de Banco de Dados" style="verticalAlign=top;align=left;spacingTop=8;spacingLeft=2;spacingRight=12;shape=cube;size=10;direction=south;fontStyle=4;html=1;whiteSpace=wrap;" vertex="1" parent="4pfl6su4iYsKpTgJtxGB-11">
          <mxGeometry width="180" height="120" as="geometry" />
        </mxCell>
        <mxCell id="4pfl6su4iYsKpTgJtxGB-10" value="SGBD" style="shape=module;align=left;spacingLeft=20;align=center;verticalAlign=top;whiteSpace=wrap;html=1;" vertex="1" parent="4pfl6su4iYsKpTgJtxGB-11">
          <mxGeometry x="20" y="40" width="100" height="50" as="geometry" />
        </mxCell>
        <mxCell id="4pfl6su4iYsKpTgJtxGB-12" value="" style="group" vertex="1" connectable="0" parent="1">
          <mxGeometry x="220" y="120" width="180" height="120" as="geometry" />
        </mxCell>
        <mxCell id="4pfl6su4iYsKpTgJtxGB-1" value="Dispositivos de usuario" style="verticalAlign=top;align=left;spacingTop=8;spacingLeft=2;spacingRight=12;shape=cube;size=10;direction=south;fontStyle=4;html=1;whiteSpace=wrap;" vertex="1" parent="4pfl6su4iYsKpTgJtxGB-12">
          <mxGeometry width="180" height="120" as="geometry" />
        </mxCell>
        <mxCell id="4pfl6su4iYsKpTgJtxGB-2" value="Navegador Web" style="shape=module;align=left;spacingLeft=20;align=center;verticalAlign=top;whiteSpace=wrap;html=1;container=1;" vertex="1" parent="4pfl6su4iYsKpTgJtxGB-12">
          <mxGeometry y="35" width="100" height="50" as="geometry" />
        </mxCell>
        <mxCell id="4pfl6su4iYsKpTgJtxGB-14" value="" style="endArrow=none;html=1;rounded=0;exitX=-0.002;exitY=0.728;exitDx=0;exitDy=0;exitPerimeter=0;" edge="1" parent="1" source="4pfl6su4iYsKpTgJtxGB-3">
          <mxGeometry width="50" height="50" relative="1" as="geometry">
            <mxPoint x="260" y="290" as="sourcePoint" />
            <mxPoint x="310" y="240" as="targetPoint" />
          </mxGeometry>
        </mxCell>
        <mxCell id="4pfl6su4iYsKpTgJtxGB-15" value="" style="endArrow=none;html=1;rounded=0;entryX=0.998;entryY=0.775;entryDx=0;entryDy=0;entryPerimeter=0;" edge="1" parent="1" target="4pfl6su4iYsKpTgJtxGB-3">
          <mxGeometry width="50" height="50" relative="1" as="geometry">
            <mxPoint x="293" y="590" as="sourcePoint" />
            <mxPoint x="340" y="320" as="targetPoint" />
          </mxGeometry>
        </mxCell>
      </root>
    </mxGraphModel>
  </diagram>
</mxfile>
